#N canvas 0 50 1536 781 10;
#X obj 360 266 noise~;
#X obj 392 589 dac~;
#X obj 318 327 *~;
#X obj 278 244 osc~ 0.0625;
#X obj 218 288 line~;
#X obj 283 354 *~;
#X obj 185 114 bng 15 250 50 0 empty empty empty 17 7 0 10 -4034 -1
-1;
#X obj 243 114 bng 15 250 50 0 empty empty empty 17 7 0 10 -258113
-1 -1;
#X msg 249 217 0 10;
#X obj 463 266 tgl 15 0 empty empty empty 17 7 0 10 -262144 -1 -1 0
1;
#X obj 463 217 f 1;
#X obj 504 190 f 0;
#X obj 523 354 *~;
#X obj 578 288 osc~ 440;
#X obj 463 244 metro 500;
#X obj 360 217 f 0;
#X obj 463 313 vline~;
#X msg 463 288 1 10 \, 0 490 10;
#X obj 685 288 line~;
#X msg 742 190 0 10;
#X obj 581 451 *~;
#X obj 500 369 *~;
#X msg 677 190 1 12000;
#X obj 774 288 osc~ 0.25;
#X obj 714 354 *~ 0.25;
#X obj 846 327 line~;
#X msg 923 190 0 10;
#X obj 752 376 *~;
#X obj 982 291 metro 1000;
#X obj 983 445 vline~;
#X msg 983 396 1 10 \, 0 990 10;
#X obj 982 244 tgl 15 0 empty empty empty 17 7 0 10 -262144 -1 -1 0
1;
#X obj 982 190 f 1;
#X obj 1100 190 f 0;
#X obj 1044 410 osc~ 660;
#X obj 1085 459 *~;
#X obj 1023 484 *~;
#X obj 1114 410 osc~ 668;
#X msg 184 217 0.125 8000;
#X obj 119 354 osc~ 330;
#X obj 177 354 osc~ 333;
#X obj 177 403 *~;
#X obj 248 477 osc~ 0.333333;
#X obj 154 451 f 0;
#X obj 248 428 f 180;
#X obj 154 451 osc~ 0.333333;
#X obj 137 518 *~;
#X obj 170 518 *~;
#X obj 18 335 metro 1500;
#X msg 19 362 1 10 \, 0 1490 10;
#X obj 18 288 tgl 15 0 empty empty empty 17 7 0 10 -262144 -1 -1 0
1;
#X obj 18 239 f 1;
#X obj 38 244 f 0;
#X obj 19 390 vline~;
#X obj 110 451 *~;
#X obj 158 244 delay 24000;
#X msg 158 293 0 4000;
#X msg 274 153 stop;
#X msg 633 217 0 8000;
#X msg 844 190 1 16000;
#X obj 1023 533 *~ 0.5;
#X obj 463 153 delay 8000;
#X obj 982 190 delay 16000;
#X obj 18 190 delay 20000;
#X obj 391 190 delay 32000;
#X obj 1152 153 delay 36000;
#X obj 83 217 delay 36000;
#X obj 581 500 *~ 0.5;
#N canvas 6 50 1473 710 gemPatch 1;
#X obj 461 171 gemwin;
#X msg 334 137 create;
#X msg 401 137 destroy;
#X msg 517 140 1;
#X msg 556 140 0;
#X text 499 104 controls image rendering;
#X text 88 42 you can also change settings for gemwin by sending messages
to this object;
#X obj 110 637 sphere;
#X obj 24 317 loadbang;
#X obj 101 362 tgl 15 0 empty empty empty 17 7 0 10 -262144 -1 -1 1
1;
#X obj 218 369 inlet~;
#X obj 133 409 snapshot~;
#X floatatom 169 445 5 0 0 0 - - -, f 5;
#X obj 220 408 env~;
#X floatatom 218 445 5 0 0 0 - - -, f 5;
#X obj 133 371 metro 40;
#X text 330 98 creates/ destroys the the Gem-window named "Gem";
#X obj 288 114 tgl 15 0 empty empty empty 17 7 0 10 -262144 -1 -1 1
1;
#X obj 1198 172 / 256;
#X floatatom 1198 194 5 0 0 0 - - -, f 5;
#X obj 133 501 +;
#X obj 133 442 * 2;
#X obj 177 497 +;
#X obj 83 315 colorRGB 0.89 0.323 0.113;
#X text 1153 68 color converting tool;
#X obj 288 77 loadbang;
#X obj 394 351 inlet;
#X obj 394 423 line~;
#X obj 390 456 snapshot~;
#X obj 332 558 sphere;
#X floatatom 405 482 5 0 0 0 - - -, f 5;
#X obj 472 433 loadbang;
#X obj 471 460 tgl 15 0 empty empty empty 17 7 0 10 -262144 -1 -1 1
1;
#X obj 309 214 gemhead;
#X obj 94 444 f 3;
#X msg 376 397 0 481;
#X obj 391 375 t b b;
#X msg 19 480 width 500;
#X obj 183 465 200;
#X msg 424 397 2;
#X obj 488 252 inlet~;
#X text 486 226 lfo input;
#X obj 318 310 colorRGB 0.989 0.82 0.394 0;
#X obj 486 277 snapshot~;
#X floatatom 506 307 5 0 0 0 - - -, f 5;
#X obj 602 235 alpha;
#X obj 316 282 translateXYZ 1.5 -1 2;
#X msg 465 483 48;
#X obj 215 467 receive~ noiseLine;
#X obj 165 520 snapshot~;
#X obj 131 568 *;
#X obj 160 545 * 8;
#X msg 5 357 draw line;
#X obj 131 603 *;
#X msg 490 498 draw point;
#X msg 444 534 draw line;
#X obj 365 512 *;
#X floatatom 283 541 5 0 0 0 - - -, f 5;
#X obj 890 165 gemhead;
#X obj 890 187 world_light;
#X obj 811 604 square;
#X obj 744 416 color 0.585 0.91 0.703;
#X obj 863 447 inlet;
#X obj 863 519 line~;
#X obj 859 552 snapshot~;
#X obj 860 471 t b b;
#X obj 437 591 sphere;
#X obj 431 567 translateXYZ 0.25 0.25 0.25;
#X floatatom 904 598 5 0 0 0 - - -, f 5;
#X msg 878 497 2;
#X msg 834 496 0 981;
#X msg 637 540 draw line;
#X obj 1157 430 square;
#X floatatom 1185 397 5 0 0 0 - - -, f 5;
#X msg 638 573 width 3;
#X text 1200 89 47 \, 115 \, 149;
#X msg 1199 113 149;
#X obj 1084 340 color 0.183 0.449 0.592;
#X obj 1052 393 translateXYZ 0 0 -3;
#X obj 690 469 translateXYZ -0.5 2 0;
#X connect 1 0 0 0;
#X connect 2 0 0 0;
#X connect 3 0 0 0;
#X connect 4 0 0 0;
#X connect 8 0 9 0;
#X connect 8 0 52 0;
#X connect 9 0 15 0;
#X connect 9 0 37 0;
#X connect 10 0 11 0;
#X connect 10 0 13 0;
#X connect 11 0 12 0;
#X connect 11 0 21 0;
#X connect 13 0 14 0;
#X connect 15 0 11 0;
#X connect 15 0 28 0;
#X connect 15 0 34 0;
#X connect 15 0 38 0;
#X connect 15 0 43 0;
#X connect 15 0 49 0;
#X connect 15 0 64 0;
#X connect 17 0 1 0;
#X connect 17 0 3 0;
#X connect 18 0 19 0;
#X connect 20 0 50 0;
#X connect 21 0 20 1;
#X connect 21 0 22 1;
#X connect 23 0 7 0;
#X connect 25 0 17 0;
#X connect 26 0 36 0;
#X connect 27 0 28 0;
#X connect 28 0 30 0;
#X connect 30 0 56 1;
#X connect 31 0 32 0;
#X connect 32 0 47 0;
#X connect 32 0 54 0;
#X connect 32 0 71 0;
#X connect 32 0 55 0;
#X connect 32 0 74 0;
#X connect 33 0 23 0;
#X connect 33 0 46 0;
#X connect 33 0 61 0;
#X connect 33 0 77 0;
#X connect 34 0 20 0;
#X connect 35 0 27 0;
#X connect 36 0 35 0;
#X connect 36 1 39 0;
#X connect 37 0 7 0;
#X connect 38 0 7 2;
#X connect 38 0 22 0;
#X connect 39 0 27 0;
#X connect 40 0 43 0;
#X connect 42 0 29 0;
#X connect 42 0 67 0;
#X connect 43 0 42 4;
#X connect 43 0 44 0;
#X connect 44 0 53 1;
#X connect 44 0 56 0;
#X connect 46 0 42 0;
#X connect 47 0 29 2;
#X connect 47 0 66 2;
#X connect 48 0 49 0;
#X connect 49 0 51 0;
#X connect 50 0 53 0;
#X connect 51 0 50 1;
#X connect 52 0 7 0;
#X connect 52 0 38 0;
#X connect 53 0 7 1;
#X connect 54 0 29 0;
#X connect 55 0 66 0;
#X connect 56 0 57 0;
#X connect 56 0 29 1;
#X connect 56 0 66 1;
#X connect 58 0 59 0;
#X connect 61 0 79 0;
#X connect 62 0 65 0;
#X connect 63 0 64 0;
#X connect 64 0 60 1;
#X connect 64 0 68 0;
#X connect 65 0 70 0;
#X connect 65 1 69 0;
#X connect 67 0 66 0;
#X connect 69 0 63 0;
#X connect 70 0 63 0;
#X connect 71 0 60 0;
#X connect 73 0 72 1;
#X connect 74 0 60 0;
#X connect 76 0 18 0;
#X connect 77 0 78 0;
#X connect 78 0 72 0;
#X connect 79 0 60 0;
#X restore 1304 270 pd gemPatch;
#X text 1378 666 todo: sample some seagulls?;
#X obj 254 383 env~;
#X floatatom 254 405 5 0 0 0 - - -, f 5;
#X obj 325 389 send~ noise;
#X obj 1286 161 receive~ noise;
#X obj 503 266 send firstRhythm;
#X obj 1350 187 receive firstRhythm;
#X obj 357 338 send~ lfo;
#X obj 1381 220 receive~ lfo;
#X obj 184 327 send~ noiseLine;
#X obj 999 332 send secondRhythm;
#X obj 1393 265 receive secondRhythm;
#X connect 0 0 2 1;
#X connect 2 0 5 1;
#X connect 3 0 2 0;
#X connect 3 0 21 0;
#X connect 3 0 76 0;
#X connect 4 0 5 0;
#X connect 4 0 78 0;
#X connect 5 0 1 0;
#X connect 5 0 1 1;
#X connect 5 0 70 0;
#X connect 5 0 72 0;
#X connect 6 0 38 0;
#X connect 6 0 15 0;
#X connect 6 0 22 0;
#X connect 6 0 59 0;
#X connect 6 0 55 0;
#X connect 6 0 61 0;
#X connect 6 0 62 0;
#X connect 6 0 63 0;
#X connect 6 0 64 0;
#X connect 6 0 65 0;
#X connect 6 0 66 0;
#X connect 7 0 8 0;
#X connect 7 0 11 0;
#X connect 7 0 19 0;
#X connect 7 0 26 0;
#X connect 7 0 33 0;
#X connect 7 0 52 0;
#X connect 7 0 57 0;
#X connect 8 0 4 0;
#X connect 9 0 14 0;
#X connect 10 0 9 0;
#X connect 11 0 9 0;
#X connect 12 0 21 1;
#X connect 13 0 12 1;
#X connect 14 0 17 0;
#X connect 14 0 74 0;
#X connect 15 0 3 1;
#X connect 15 0 23 1;
#X connect 16 0 12 0;
#X connect 17 0 16 0;
#X connect 18 0 20 1;
#X connect 19 0 18 0;
#X connect 20 0 67 0;
#X connect 21 0 20 0;
#X connect 22 0 18 0;
#X connect 23 0 24 0;
#X connect 24 0 27 0;
#X connect 25 0 27 1;
#X connect 26 0 25 0;
#X connect 27 0 20 0;
#X connect 28 0 30 0;
#X connect 28 0 79 0;
#X connect 29 0 36 0;
#X connect 30 0 29 0;
#X connect 31 0 28 0;
#X connect 32 0 31 0;
#X connect 33 0 31 0;
#X connect 34 0 35 0;
#X connect 35 0 36 1;
#X connect 36 0 60 0;
#X connect 37 0 35 1;
#X connect 38 0 4 0;
#X connect 39 0 41 0;
#X connect 40 0 41 1;
#X connect 41 0 54 1;
#X connect 42 0 47 1;
#X connect 43 0 45 0;
#X connect 44 0 42 0;
#X connect 45 0 46 1;
#X connect 46 0 1 0;
#X connect 47 0 1 1;
#X connect 48 0 49 0;
#X connect 49 0 53 0;
#X connect 50 0 48 0;
#X connect 51 0 50 0;
#X connect 52 0 50 0;
#X connect 53 0 54 0;
#X connect 54 0 46 0;
#X connect 54 0 47 0;
#X connect 55 0 56 0;
#X connect 56 0 4 0;
#X connect 57 0 55 0;
#X connect 57 0 61 0;
#X connect 57 0 62 0;
#X connect 57 0 63 0;
#X connect 57 0 64 0;
#X connect 57 0 65 0;
#X connect 57 0 66 0;
#X connect 58 0 18 0;
#X connect 58 0 25 0;
#X connect 59 0 25 0;
#X connect 60 0 1 1;
#X connect 60 0 1 0;
#X connect 61 0 10 0;
#X connect 62 0 32 0;
#X connect 63 0 51 0;
#X connect 64 0 9 0;
#X connect 64 0 58 0;
#X connect 65 0 31 0;
#X connect 66 0 50 0;
#X connect 67 0 1 1;
#X connect 67 0 1 0;
#X connect 70 0 71 0;
#X connect 73 0 68 0;
#X connect 75 0 68 1;
#X connect 77 0 68 2;
#X connect 80 0 68 3;
